HIERARCHY
ROOT Root
{
	OFFSET 0.00000 0.00000 0.00000
	CHANNELS 6 Xposition Yposition Zposition Zrotation Xrotation Yrotation
	JOINT Hips
	{
		OFFSET 0 0 0	
		CHANNELS 3 Zrotation Xrotation Yrotation
		JOINT Spine
		{
			OFFSET 0 4 0	
			CHANNELS 3 Zrotation Xrotation Yrotation
			JOINT Spine1
			{
				OFFSET 0 19.4 0	
				CHANNELS 3 Zrotation Xrotation Yrotation
				JOINT Spine2
				{
					OFFSET 0 16.6 0	
					CHANNELS 3 Zrotation Xrotation Yrotation
					JOINT LeftCollar
					{
						OFFSET 0 10 0	
						CHANNELS 3 Zrotation Xrotation Yrotation
						JOINT LeftArm
						{
							OFFSET 15.6 -2 3	
							CHANNELS 3 Zrotation Xrotation Yrotation
							JOINT LeftForeArm
							{
								OFFSET 3.5 -27 -1	
								CHANNELS 3 Zrotation Xrotation Yrotation
								JOINT LeftHand
								{
									OFFSET 1 -27 1	
									CHANNELS 3 Zrotation Xrotation Yrotation
									End Site
									{
										OFFSET 0 -15 0
									}
								}
							}
						}
					}
					JOINT RightCollar
					{
						OFFSET 0 10 0	
						CHANNELS 3 Zrotation Xrotation Yrotation
						JOINT RightArm
						{
							OFFSET -15.6 -2 3	
							CHANNELS 3 Zrotation Xrotation Yrotation
							JOINT RightForeArm
							{
								OFFSET -3.5 -27 -1	
								CHANNELS 3 Zrotation Xrotation Yrotation
								JOINT RightHand
								{
									OFFSET -1 -27 1	
									CHANNELS 3 Zrotation Xrotation Yrotation
									End Site
									{
										OFFSET 0 -15 0
									}
								}
							}
						}
					}
					JOINT Neck
					{
						OFFSET 0 10 0	
						CHANNELS 3 Zrotation Xrotation Yrotation
						JOINT Head
						{
							OFFSET 0 12.7 3	
							CHANNELS 3 Zrotation Xrotation Yrotation
							End Site
							{
								OFFSET 0 12.7 3
							}
						}
					}
				}
			}
		}
	}
	JOINT LeftHip
	{
		OFFSET 0 0 0	
		CHANNELS 3 Zrotation Xrotation Yrotation
		JOINT LeftUpLeg
		{
			OFFSET 8.8 -6 0	
			CHANNELS 3 Zrotation Xrotation Yrotation
			JOINT LeftLeg
			{
				OFFSET 0 -39 2	
				CHANNELS 3 Zrotation Xrotation Yrotation
				JOINT LeftFoot
				{
					OFFSET 0 -43 -2	
					CHANNELS 3 Zrotation Xrotation Yrotation
					JOINT LeftFootFront
					{
						OFFSET 0 -7 8.5	
						CHANNELS 3 Zrotation Xrotation Yrotation
						End Site
						{
							OFFSET 0 -0.5 9
						}
					}
				}
				JOINT LeftHeel
				{
					OFFSET 0 -43 -2	
					CHANNELS 3 Zrotation Xrotation Yrotation
					End Site
					{
						OFFSET 0 -7.5 -5
					}
				}
			}
		}
	}
	JOINT RightHip
	{
		OFFSET 0 0 0	
		CHANNELS 3 Zrotation Xrotation Yrotation
		JOINT RightUpLeg
		{
			OFFSET -8.8 -6 0	
			CHANNELS 3 Zrotation Xrotation Yrotation
			JOINT RightLeg
			{
				OFFSET 0 -39 2	
				CHANNELS 3 Zrotation Xrotation Yrotation
				JOINT RightFoot
				{
					OFFSET 0 -43 -2	
					CHANNELS 3 Zrotation Xrotation Yrotation
					JOINT RightFootFront
					{
						OFFSET 0 -7 8.5	
						CHANNELS 3 Zrotation Xrotation Yrotation
						End Site
						{
							OFFSET 0 -0.5 9
						}
					}
				}
				JOINT RightHeel
				{
					OFFSET 0 -43 -2	
					CHANNELS 3 Zrotation Xrotation Yrotation
					End Site
					{
						OFFSET 0 -7.5 -5
					}
				}
			}
		}
	}
}
MOTION
Frames: 24
Frame Time: 0.05
0 95.5 0 -0 0 -0 -0 0 -0 -0 0 -0 -3.9384 6.6645 2.7698 -0 0 -0 -0 0 -0 -1.1416 -8.1008 23.458 -116.92 -63.129 -63.188 -0 0 -0 -0 0 -0 -6.2155 -9.4388 14.165 104.99 -34.192 24.038 -0 0 -0 2.3784 -10.33 0.071241 2.3784 -10.33 0.071241 -0 0 -0 -0 0 -0 -0 0 -0 -0 0 -0 -0 0 -0 -0 0 -0 -0 0 -0 -0 0 -0 -0 0 -0 -0 0 -0 -0 0 -0 -0 0 -0 
0 95.5 0 -0 0 -0 -0 0 -0 -0 0 -0 -3.9053 6.6146 2.8066 -0 0 -0 -0 0 -0 -1.173 -8.133 23.469 -116.53 -63.197 -63.124 -0 0 -0 -0 0 -0 -6.103 -9.6598 13.961 104.7 -33.832 23.62 -0 0 -0 2.357 -10.319 0.053426 2.357 -10.319 0.053426 -0 0 -0 -0 0 -0 -0 0 -0 -0 0 -0 -0 0 -0 -0 0 -0 -0 0 -0 -0 0 -0 -0 0 -0 -0 0 -0 -0 0 -0 -0 0 -0 
0 95.5 0 -0 0 -0 -0 0 -0 -0 0 -0 -3.8539 6.5388 2.8649 -0 0 -0 -0 0 -0 -1.2254 -8.1879 23.454 -116.11 -63.275 -62.942 -0 0 -0 -0 0 -0 -5.8863 -10.071 13.759 104.2 -33.599 23.054 -0 0 -0 2.3522 -10.364 0.071143 2.3522 -10.364 0.071142 -0 0 -0 -0 0 -0 -0 0 -0 -0 0 -0 -0 0 -0 -0 0 -0 -0 0 -0 -0 0 -0 -0 0 -0 -0 0 -0 -0 0 -0 -0 0 -0 
0 95.5 0 -0 0 -0 -0 0 -0 -0 0 -0 -3.7846 6.4824 2.8759 -0 0 -0 -0 0 -0 -1.2761 -8.2958 23.433 -115.67 -63.397 -62.693 -0 0 -0 -0 0 -0 -5.7901 -10.275 13.747 103.95 -33.467 22.841 -0 0 -0 2.3377 -10.379 0.10149 2.3377 -10.379 0.10149 -0 0 -0 -0 0 -0 -0 0 -0 -0 0 -0 -0 0 -0 -0 0 -0 -0 0 -0 -0 0 -0 -0 0 -0 -0 0 -0 -0 0 -0 -0 0 -0 
0 95.5 0 -0 0 -0 -0 0 -0 -0 0 -0 -3.7168 6.4406 2.866 -0 0 -0 -0 0 -0 -1.3076 -8.4797 23.441 -114.94 -63.511 -62.318 -0 0 -0 -0 0 -0 -5.6318 -10.54 13.811 103.55 -33.406 22.732 -0 0 -0 2.3274 -10.374 0.11645 2.3274 -10.374 0.11645 -0 0 -0 -0 0 -0 -0 0 -0 -0 0 -0 -0 0 -0 -0 0 -0 -0 0 -0 -0 0 -0 -0 0 -0 -0 0 -0 -0 0 -0 -0 0 -0 
0 95.5 0 -0 0 -0 -0 0 -0 -0 0 -0 -3.6735 6.3544 2.8219 -0 0 -0 -0 0 -0 -1.2124 -8.8024 23.326 -113.87 -63.777 -61.754 -0 0 -0 -0 0 -0 -5.3408 -10.918 13.866 102.86 -33.332 22.694 -0 0 -0 2.3423 -10.34 0.10738 2.3423 -10.34 0.10738 -0 0 -0 -0 0 -0 -0 0 -0 -0 0 -0 -0 0 -0 -0 0 -0 -0 0 -0 -0 0 -0 -0 0 -0 -0 0 -0 -0 0 -0 -0 0 -0 
0 95.5 0 -0 0 -0 -0 0 -0 -0 0 -0 -3.6614 6.1307 2.7705 -0 0 -0 -0 0 -0 -0.86827 -9.2615 22.971 -111.81 -64.272 -60.434 -0 0 -0 -0 0 -0 -4.9723 -11.442 14.079 101.91 -33.388 22.828 -0 0 -0 2.388 -10.268 0.10463 2.388 -10.268 0.10463 -0 0 -0 -0 0 -0 -0 0 -0 -0 0 -0 -0 0 -0 -0 0 -0 -0 0 -0 -0 0 -0 -0 0 -0 -0 0 -0 -0 0 -0 -0 0 -0 
0 95.5 0 -0 0 -0 -0 0 -0 -0 0 -0 -3.5121 5.9615 2.7303 -0 0 -0 -0 0 -0 -0.89582 -10.15 22.46 -108.17 -64.538 -58.158 -0 0 -0 -0 0 -0 -4.6419 -12.3 14.521 100.69 -33.577 23.12 -0 0 -0 2.3514 -10.282 0.13507 2.3514 -10.282 0.13507 -0 0 -0 -0 0 -0 -0 0 -0 -0 0 -0 -0 0 -0 -0 0 -0 -0 0 -0 -0 0 -0 -0 0 -0 -0 0 -0 -0 0 -0 -0 0 -0 
0 95.5 0 -0 0 -0 -0 0 -0 -0 0 -0 -3.4243 5.7422 2.7518 -0 0 -0 -0 0 -0 -1.0246 -11.86 21.63 -104.55 -64.814 -56.023 -0 0 -0 -0 0 -0 -3.946 -13.372 15.082 99.492 -33.805 23.093 -0 0 -0 2.3529 -10.386 0.12286 2.3529 -10.386 0.12286 -0 0 -0 -0 0 -0 -0 0 -0 -0 0 -0 -0 0 -0 -0 0 -0 -0 0 -0 -0 0 -0 -0 0 -0 -0 0 -0 -0 0 -0 -0 0 -0 
0 95.5 0 -0 0 -0 -0 0 -0 -0 0 -0 -3.3512 5.5293 2.8927 -0 0 -0 -0 0 -0 -1.3478 -14.724 20.082 -101.65 -65.311 -55.095 -0 0 -0 -0 0 -0 -2.7666 -14.814 15.602 98.685 -34.108 23.14 -0 0 -0 2.362 -10.574 0.026274 2.362 -10.574 0.026274 -0 0 -0 -0 0 -0 -0 0 -0 -0 0 -0 -0 0 -0 -0 0 -0 -0 0 -0 -0 0 -0 -0 0 -0 -0 0 -0 -0 0 -0 -0 0 -0 
0 95.5 0 -0 0 -0 -0 0 -0 -0 0 -0 -3.2831 5.338 3.2533 -0 0 -0 -0 0 -0 -1.8885 -18.577 17.858 -97.96 -65.371 -54.539 -0 0 -0 -0 0 -0 -0.95615 -16.832 16.179 98.408 -34.538 23.606 -0 0 -0 2.3352 -10.797 -0.1396 2.3352 -10.797 -0.1396 -0 0 -0 -0 0 -0 -0 0 -0 -0 0 -0 -0 0 -0 -0 0 -0 -0 0 -0 -0 0 -0 -0 0 -0 -0 0 -0 -0 0 -0 -0 0 -0 
0 95.5 0 -0 0 -0 -0 0 -0 -0 0 -0 -3.0826 5.0894 3.5117 -0 0 -0 -0 0 -0 -2.464 -23.006 15.451 -94.011 -65.005 -53.975 -0 0 -0 -0 0 -0 1.5412 -19.447 17.132 98.35 -34.86 24.303 -0 0 -0 2.2267 -11.029 -0.196 2.2267 -11.029 -0.196 -0 0 -0 -0 0 -0 -0 0 -0 -0 0 -0 -0 0 -0 -0 0 -0 -0 0 -0 -0 0 -0 -0 0 -0 -0 0 -0 -0 0 -0 -0 0 -0 
0 95.5 0 -0 0 -0 -0 0 -0 -0 0 -0 -3.0385 4.807 3.4903 -0 0 -0 -0 0 -0 -2.5764 -27.677 13.206 -89.831 -64.012 -52.619 -0 0 -0 -0 0 -0 4.9697 -22.558 18.541 98.265 -34.957 25.458 -0 0 -0 2.2249 -11.318 -0.14843 2.2249 -11.318 -0.14843 -0 0 -0 -0 0 -0 -0 0 -0 -0 0 -0 -0 0 -0 -0 0 -0 -0 0 -0 -0 0 -0 -0 0 -0 -0 0 -0 -0 0 -0 -0 0 -0 
0 95.5 0 -0 0 -0 -0 0 -0 -0 0 -0 -2.9997 4.5808 3.369 -0 0 -0 -0 0 -0 -2.3573 -32.412 11.319 -85.521 -62.22 -50.414 -0 0 -0 -0 0 -0 8.688 -25.747 20.236 98.352 -34.771 26.666 -0 0 -0 2.227 -11.691 -0.096928 2.227 -11.691 -0.096928 -0 0 -0 -0 0 -0 -0 0 -0 -0 0 -0 -0 0 -0 -0 0 -0 -0 0 -0 -0 0 -0 -0 0 -0 -0 0 -0 -0 0 -0 -0 0 -0 
0 95.5 0 -0 0 -0 -0 0 -0 -0 0 -0 -2.9078 4.4789 3.3353 -0 0 -0 -0 0 -0 -2.0817 -37.056 9.876 -81.525 -59.821 -47.92 -0 0 -0 -0 0 -0 12.239 -28.797 22.055 98.672 -34.336 27.523 -0 0 -0 2.1767 -12.159 -0.083857 2.1767 -12.159 -0.083858 -0 0 -0 -0 0 -0 -0 0 -0 -0 0 -0 -0 0 -0 -0 0 -0 -0 0 -0 -0 0 -0 -0 0 -0 -0 0 -0 -0 0 -0 -0 0 -0 
0 95.5 0 -0 0 -0 -0 0 -0 -0 0 -0 -2.795 4.4062 3.3195 -0 0 -0 -0 0 -0 -2.0789 -41.279 8.8347 -78.457 -57.051 -46.02 -0 0 -0 -0 0 -0 15.55 -31.608 23.886 99.142 -33.719 28.066 -0 0 -0 2.1265 -12.642 -0.066155 2.1265 -12.642 -0.066154 -0 0 -0 -0 0 -0 -0 0 -0 -0 0 -0 -0 0 -0 -0 0 -0 -0 0 -0 -0 0 -0 -0 0 -0 -0 0 -0 -0 0 -0 -0 0 -0 
0 95.5 0 -0 0 -0 -0 0 -0 -0 0 -0 -2.7674 4.3118 3.3018 -0 0 -0 -0 0 -0 -2.3897 -44.801 7.8 -76.716 -54.487 -44.859 -0 0 -0 -0 0 -0 18.667 -34.165 25.716 99.77 -32.998 28.129 -0 0 -0 2.1751 -13.099 -0.074522 2.1751 -13.099 -0.074522 -0 0 -0 -0 0 -0 -0 0 -0 -0 0 -0 -0 0 -0 -0 0 -0 -0 0 -0 -0 0 -0 -0 0 -0 -0 0 -0 -0 0 -0 -0 0 -0 
0 95.5 0 -0 0 -0 -0 0 -0 -0 0 -0 -2.8634 4.2554 3.4267 -0 0 -0 -0 0 -0 -3.0186 -47.619 6.5121 -75.863 -52.299 -44.333 -0 0 -0 -0 0 -0 21.456 -36.533 27.303 100.39 -32.25 28.185 -0 0 -0 2.2662 -13.586 -0.19883 2.2662 -13.586 -0.19883 -0 0 -0 -0 0 -0 -0 0 -0 -0 0 -0 -0 0 -0 -0 0 -0 -0 0 -0 -0 0 -0 -0 0 -0 -0 0 -0 -0 0 -0 -0 0 -0 
0 95.5 0 -0 0 -0 -0 0 -0 -0 0 -0 -2.9919 4.319 3.4158 -0 0 -0 -0 0 -0 -3.7413 -49.892 5.3744 -75.21 -50.464 -44.635 -0 0 -0 -0 0 -0 23.991 -38.638 28.839 101.09 -31.555 28.44 -0 0 -0 2.3599 -14.127 -0.266 2.3599 -14.127 -0.266 -0 0 -0 -0 0 -0 -0 0 -0 -0 0 -0 -0 0 -0 -0 0 -0 -0 0 -0 -0 0 -0 -0 0 -0 -0 0 -0 -0 0 -0 -0 0 -0 
0 95.5 0 -0 0 -0 -0 0 -0 -0 0 -0 -3.124 4.4548 3.3412 -0 0 -0 -0 0 -0 -4.5657 -51.778 4.3612 -74.715 -49.005 -45.417 -0 0 -0 -0 0 -0 26.231 -40.448 30.232 101.7 -30.911 28.8 -0 0 -0 2.4364 -14.679 -0.31226 2.4364 -14.679 -0.31226 -0 0 -0 -0 0 -0 -0 0 -0 -0 0 -0 -0 0 -0 -0 0 -0 -0 0 -0 -0 0 -0 -0 0 -0 -0 0 -0 -0 0 -0 -0 0 -0 
0 95.5 0 -0 0 -0 -0 0 -0 -0 0 -0 -3.3194 4.5708 3.2202 -0 0 -0 -0 0 -0 -5.3344 -53.386 3.5435 -74.447 -47.715 -46.305 -0 0 -0 -0 0 -0 28.357 -41.929 31.395 102.14 -30.284 29.122 -0 0 -0 2.5232 -15.165 -0.35913 2.5232 -15.165 -0.35913 -0 0 -0 -0 0 -0 -0 0 -0 -0 0 -0 -0 0 -0 -0 0 -0 -0 0 -0 -0 0 -0 -0 0 -0 -0 0 -0 -0 0 -0 -0 0 -0 
0 95.5 0 -0 0 -0 -0 0 -0 -0 0 -0 -3.4395 4.6956 3.042 -0 0 -0 -0 0 -0 -6.1107 -54.769 2.8289 -74.363 -46.634 -47.224 -0 0 -0 -0 0 -0 30.258 -43.081 32.372 102.52 -29.734 29.386 -0 0 -0 2.5578 -15.593 -0.38646 2.5578 -15.593 -0.38646 -0 0 -0 -0 0 -0 -0 0 -0 -0 0 -0 -0 0 -0 -0 0 -0 -0 0 -0 -0 0 -0 -0 0 -0 -0 0 -0 -0 0 -0 -0 0 -0 
0 95.5 0 -0 0 -0 -0 0 -0 -0 0 -0 -3.463 4.8621 2.8724 -0 0 -0 -0 0 -0 -7.0004 -55.952 2.1212 -74.354 -45.735 -48.308 -0 0 -0 -0 0 -0 31.985 -44.079 33.302 102.8 -29.268 29.554 -0 0 -0 2.5391 -16.017 -0.41877 2.5391 -16.017 -0.41877 -0 0 -0 -0 0 -0 -0 0 -0 -0 0 -0 -0 0 -0 -0 0 -0 -0 0 -0 -0 0 -0 -0 0 -0 -0 0 -0 -0 0 -0 -0 0 -0 
0 95.5 0 -0 0 -0 -0 0 -0 -0 0 -0 -3.4548 5.0696 2.7812 -0 0 -0 -0 0 -0 -8.0347 -56.999 1.3762 -74.337 -44.984 -49.517 -0 0 -0 -0 0 -0 33.556 -45.064 34.113 103.04 -28.856 29.751 -0 0 -0 2.4744 -16.479 -0.48294 2.4744 -16.479 -0.48294 -0 0 -0 -0 0 -0 -0 0 -0 -0 0 -0 -0 0 -0 -0 0 -0 -0 0 -0 -0 0 -0 -0 0 -0 -0 0 -0 -0 0 -0 -0 0 -0 
